<?xml version="1.0" encoding="UTF-8" standalone="no"?>
<!DOCTYPE svg PUBLIC "-//W3C//DTD SVG 1.1//EN"
 "http://www.w3.org/Graphics/SVG/1.1/DTD/svg11.dtd">
<!-- Generated by graphviz version 2.36.0 (20140111.2315)
 -->
<!-- Title: class Pages: 1 -->
<svg width="704pt" height="252pt"
 viewBox="0.00 0.00 704.00 252.00" xmlns="http://www.w3.org/2000/svg" xmlns:xlink="http://www.w3.org/1999/xlink">
<g id="graph0" class="graph" transform="scale(1 1) rotate(0) translate(4 248)">
<title>class</title>
<polygon fill="white" stroke="none" points="-4,4 -4,-248 700,-248 700,4 -4,4"/>
<!-- Animal -->
<g id="node1" class="node"><title>Animal</title>
<polygon fill="none" stroke="black" points="14.5,-85 14.5,-169 115.5,-169 115.5,-85 14.5,-85"/>
<text text-anchor="middle" x="65" y="-153.8" font-family="Times,serif" font-size="14.00">Animal</text>
<polyline fill="none" stroke="black" points="14.5,-146 115.5,-146 "/>
<text text-anchor="start" x="22.5" y="-130.8" font-family="Times,serif" font-size="14.00">+ name : string</text>
<text text-anchor="start" x="22.5" y="-115.8" font-family="Times,serif" font-size="14.00">+ age : int</text>
<polyline fill="none" stroke="black" points="14.5,-108 115.5,-108 "/>
<text text-anchor="start" x="22.5" y="-92.8" font-family="Times,serif" font-size="14.00">+ die() : void</text>
</g>
<!-- Dog -->
<g id="node2" class="node"><title>Dog</title>
<polygon fill="none" stroke="black" points="124.5,-1 124.5,-47 221.5,-47 221.5,-1 124.5,-1"/>
<text text-anchor="middle" x="173" y="-31.8" font-family="Times,serif" font-size="14.00">Dog</text>
<polyline fill="none" stroke="black" points="124.5,-24 221.5,-24 "/>
<text text-anchor="start" x="132.5" y="-8.8" font-family="Times,serif" font-size="14.00">+ bark() : void</text>
</g>
<!-- Dog&#45;&gt;Animal -->
<g id="edge1" class="edge"><title>Dog&#45;&gt;Animal</title>
<path fill="none" stroke="black" d="M149.299,-47.1649C139.621,-56.2154 128.024,-67.0611 116.572,-77.7705"/>
<polygon fill="none" stroke="black" points="114.003,-75.3813 109.09,-84.7681 118.784,-80.494 114.003,-75.3813"/>
</g>
<!-- IDog -->
<g id="node4" class="node"><title>IDog</title>
<polygon fill="none" stroke="black" points="146,-109 146,-145 200,-145 200,-109 146,-109"/>
<text text-anchor="middle" x="173" y="-123.3" font-family="Times,serif" font-size="14.00">IDog</text>
</g>
<!-- Dog&#45;&gt;IDog -->
<g id="edge3" class="edge"><title>Dog&#45;&gt;IDog</title>
<path fill="none" stroke="black" stroke-dasharray="5,2" d="M173,-47.4152C173,-62.5253 173,-82.5542 173,-98.6097"/>
<polygon fill="none" stroke="black" points="169.5,-98.9809 173,-108.981 176.5,-98.981 169.5,-98.9809"/>
</g>
<!-- Cat -->
<g id="node3" class="node"><title>Cat</title>
<polygon fill="none" stroke="black" points="-0.5,-1 -0.5,-47 106.5,-47 106.5,-1 -0.5,-1"/>
<text text-anchor="middle" x="53" y="-31.8" font-family="Times,serif" font-size="14.00">Cat</text>
<polyline fill="none" stroke="black" points="-0.5,-24 106.5,-24 "/>
<text text-anchor="start" x="7.5" y="-8.8" font-family="Times,serif" font-size="14.00">+ meow() : void</text>
</g>
<!-- Cat&#45;&gt;Animal -->
<g id="edge2" class="edge"><title>Cat&#45;&gt;Animal</title>
<path fill="none" stroke="black" d="M55.6632,-47.4152C56.6369,-55.6104 57.7825,-65.2526 58.9314,-74.923"/>
<polygon fill="none" stroke="black" points="55.4675,-75.4341 60.1229,-84.9513 62.4186,-74.6082 55.4675,-75.4341"/>
</g>
<!-- People -->
<g id="node5" class="node"><title>People</title>
<polygon fill="none" stroke="black" points="240,-1 240,-47 384,-47 384,-1 240,-1"/>
<text text-anchor="middle" x="312" y="-31.8" font-family="Times,serif" font-size="14.00">People</text>
<polyline fill="none" stroke="black" points="240,-24 384,-24 "/>
<text text-anchor="start" x="248" y="-8.8" font-family="Times,serif" font-size="14.00">+crossRiver(Boat boat)</text>
</g>
<!-- Boat -->
<g id="node6" class="node"><title>Boat</title>
<polygon fill="none" stroke="black" points="285,-109 285,-145 339,-145 339,-109 285,-109"/>
<text text-anchor="middle" x="312" y="-123.3" font-family="Times,serif" font-size="14.00">Boat</text>
</g>
<!-- People&#45;&gt;Boat -->
<g id="edge4" class="edge"><title>People&#45;&gt;Boat</title>
<path fill="none" stroke="black" stroke-dasharray="5,2" d="M312,-47.4152C312,-62.5253 312,-82.5542 312,-98.6097"/>
<polygon fill="black" stroke="black" points="308.5,-98.9809 312,-108.981 315.5,-98.981 308.5,-98.9809"/>
</g>
<!-- Teacher -->
<g id="node7" class="node"><title>Teacher</title>
<polygon fill="none" stroke="black" points="395.5,-96.5 395.5,-157.5 466.5,-157.5 466.5,-96.5 395.5,-96.5"/>
<text text-anchor="middle" x="431" y="-142.3" font-family="Times,serif" font-size="14.00">Teacher</text>
<polyline fill="none" stroke="black" points="395.5,-134.5 466.5,-134.5 "/>
<text text-anchor="start" x="403.5" y="-119.3" font-family="Times,serif" font-size="14.00">+Course</text>
<text text-anchor="start" x="403.5" y="-104.3" font-family="Times,serif" font-size="14.00">+Students</text>
</g>
<!-- Course -->
<g id="node8" class="node"><title>Course</title>
<polygon fill="none" stroke="black" points="403.5,-207 403.5,-243 458.5,-243 458.5,-207 403.5,-207"/>
<text text-anchor="middle" x="431" y="-221.3" font-family="Times,serif" font-size="14.00">Course</text>
</g>
<!-- Teacher&#45;&gt;Course -->
<g id="edge5" class="edge"><title>Teacher&#45;&gt;Course</title>
<path fill="none" stroke="black" d="M431,-157.586C431,-170.114 431,-184.614 431,-196.863"/>
<polygon fill="black" stroke="black" points="427.5,-196.942 431,-206.942 434.5,-196.942 427.5,-196.942"/>
</g>
<!-- Student -->
<g id="node9" class="node"><title>Student</title>
<polygon fill="none" stroke="black" points="402,-6 402,-42 460,-42 460,-6 402,-6"/>
<text text-anchor="middle" x="431" y="-20.3" font-family="Times,serif" font-size="14.00">Student</text>
</g>
<!-- Student&#45;&gt;Teacher -->
<g id="edge6" class="edge"><title>Student&#45;&gt;Teacher</title>
<path fill="none" stroke="black" d="M431,-42.1333C431,-53.7412 431,-69.6064 431,-84.4153"/>
<polygon fill="none" stroke="black" points="431,-84.4896 435,-90.4897 431,-96.4896 427,-90.4896 431,-84.4896"/>
</g>
<!-- Head -->
<g id="node10" class="node"><title>Head</title>
<polygon fill="none" stroke="black" points="478,-6 478,-42 532,-42 532,-6 478,-6"/>
<text text-anchor="middle" x="505" y="-20.3" font-family="Times,serif" font-size="14.00">Head</text>
</g>
<!-- Human -->
<g id="node13" class="node"><title>Human</title>
<polygon fill="none" stroke="black" points="551.5,-109 551.5,-145 608.5,-145 608.5,-109 551.5,-109"/>
<text text-anchor="middle" x="580" y="-123.3" font-family="Times,serif" font-size="14.00">Human</text>
</g>
<!-- Head&#45;&gt;Human -->
<g id="edge7" class="edge"><title>Head&#45;&gt;Human</title>
<path fill="none" stroke="black" d="M517.723,-42.1333C529.305,-57.7314 546.597,-81.0168 560.022,-99.0966"/>
<polygon fill="black" stroke="black" points="560.061,-99.1484 566.849,-101.581 567.215,-108.783 560.426,-106.35 560.061,-99.1484"/>
</g>
<!-- LeftLeg -->
<g id="node11" class="node"><title>LeftLeg</title>
<polygon fill="none" stroke="black" points="550,-6 550,-42 610,-42 610,-6 550,-6"/>
<text text-anchor="middle" x="580" y="-20.3" font-family="Times,serif" font-size="14.00">LeftLeg</text>
</g>
<!-- LeftLeg&#45;&gt;Human -->
<g id="edge8" class="edge"><title>LeftLeg&#45;&gt;Human</title>
<path fill="none" stroke="black" d="M580,-42.1333C580,-57.0059 580,-78.8673 580,-96.5414"/>
<polygon fill="black" stroke="black" points="580,-96.7827 584,-102.783 580,-108.783 576,-102.783 580,-96.7827"/>
</g>
<!-- RightLeg -->
<g id="node12" class="node"><title>RightLeg</title>
<polygon fill="none" stroke="black" points="628,-6 628,-42 696,-42 696,-6 628,-6"/>
<text text-anchor="middle" x="662" y="-20.3" font-family="Times,serif" font-size="14.00">RightLeg</text>
</g>
<!-- RightLeg&#45;&gt;Human -->
<g id="edge9" class="edge"><title>RightLeg&#45;&gt;Human</title>
<path fill="none" stroke="black" d="M648.09,-42.1333C635.367,-57.8039 616.345,-81.2335 601.638,-99.3486"/>
<polygon fill="black" stroke="black" points="601.542,-99.4665 600.866,-106.646 593.978,-108.783 594.655,-101.603 601.542,-99.4665"/>
</g>
</g>
</svg>
