<?xml version="1.0" encoding="UTF-8" standalone="no"?>
<!DOCTYPE svg PUBLIC "-//W3C//DTD SVG 1.1//EN"
 "http://www.w3.org/Graphics/SVG/1.1/DTD/svg11.dtd">
<!-- Generated by graphviz version 2.36.0 (20140111.2315)
 -->
<!-- Title: %3 Pages: 1 -->
<svg width="288pt" height="90pt"
 viewBox="0.00 0.00 288.00 90.00" xmlns="http://www.w3.org/2000/svg" xmlns:xlink="http://www.w3.org/1999/xlink">
<g id="graph0" class="graph" transform="scale(0.195652 0.195652) rotate(0) translate(4 456)">
<title>%3</title>
<polygon fill="white" stroke="none" points="-4,4 -4,-456 1468,-456 1468,4 -4,4"/>
<text text-anchor="middle" x="732" y="-7.8" font-family="Times,serif" font-size="14.00">demo1</text>
<g id="clust9" class="cluster"><title>cluster1</title>
<polygon fill="lightgrey" stroke="lightgrey" points="1300,-89 1300,-334 1374,-334 1374,-89 1300,-89"/>
<text text-anchor="middle" x="1337" y="-318.8" font-family="Times,serif" font-size="14.00">process #1</text>
</g>
<g id="clust10" class="cluster"><title>cluster2</title>
<polygon fill="none" stroke="blue" points="1382,-89 1382,-334 1456,-334 1456,-89 1382,-89"/>
<text text-anchor="middle" x="1419" y="-318.8" font-family="Times,serif" font-size="14.00">process #2</text>
</g>
<!-- A -->
<g id="node1" class="node"><title>A</title>
<polygon fill="none" stroke="black" points="58,-432 4,-432 4,-396 58,-396 58,-432"/>
<polygon fill="none" stroke="black" points="62,-436 -3.55271e-15,-436 -3.55271e-15,-392 62,-392 62,-436"/>
<text text-anchor="middle" x="31" y="-410.3" font-family="Times,serif" font-size="14.00">A</text>
</g>
<!-- B -->
<g id="node2" class="node"><title>B</title>
<ellipse fill="none" stroke="black" cx="31" cy="-284" rx="27" ry="18"/>
<text text-anchor="middle" x="31" y="-280.3" font-family="Times,serif" font-size="14.00">B</text>
</g>
<!-- A&#45;&gt;B -->
<g id="edge1" class="edge"><title>A&#45;&gt;B</title>
<path fill="none" stroke="red" stroke-dasharray="1,5" d="M31,-391.863C31,-370.065 31,-335.99 31,-312.196"/>
<polygon fill="red" stroke="red" points="34.5001,-312.068 31,-302.068 27.5001,-312.068 34.5001,-312.068"/>
<text text-anchor="middle" x="45" y="-346.3" font-family="Times,serif" font-size="14.00">hello</text>
</g>
<!-- C -->
<g id="node4" class="node"><title>C</title>
<ellipse fill="none" stroke="black" cx="103" cy="-284" rx="27" ry="18"/>
<text text-anchor="middle" x="103" y="-280.3" font-family="Times,serif" font-size="14.00">C</text>
</g>
<!-- A&#45;&gt;C -->
<g id="edge3" class="edge"><title>A&#45;&gt;C</title>
<path fill="none" stroke="black" d="M43.4359,-391.918C49.4137,-381.71 56.644,-369.254 63,-358 71.8921,-342.255 81.6477,-324.462 89.2983,-310.384"/>
<polygon fill="black" stroke="black" points="92.5327,-311.762 94.2222,-301.303 86.379,-308.426 92.5327,-311.762"/>
</g>
<!-- D -->
<g id="node3" class="node"><title>D</title>
<ellipse fill="none" stroke="black" cx="62" cy="-192" rx="27" ry="18"/>
<text text-anchor="middle" x="62" y="-188.3" font-family="Times,serif" font-size="14.00">D</text>
</g>
<!-- B&#45;&gt;D -->
<g id="edge2" class="edge"><title>B&#45;&gt;D</title>
<path fill="none" stroke="black" d="M36.8309,-266.072C41.334,-252.998 47.65,-234.661 52.8283,-219.627"/>
<polygon fill="black" stroke="black" points="56.2477,-220.447 56.1953,-209.852 49.6294,-218.167 56.2477,-220.447"/>
</g>
<!-- C&#45;&gt;D -->
<g id="edge4" class="edge"><title>C&#45;&gt;D</title>
<path fill="none" stroke="black" d="M95.48,-266.493C89.4115,-253.172 80.7652,-234.192 73.7794,-218.857"/>
<polygon fill="black" stroke="black" points="76.8031,-217.052 69.4724,-209.403 70.433,-219.954 76.8031,-217.052"/>
</g>
<!-- E -->
<g id="node5" class="node"><title>E</title>
<polygon fill="none" stroke="black" points="140.195,-438.082 85.2468,-423.274 96.7944,-392.879 129.764,-401.764 140.195,-438.082"/>
<polygon fill="none" stroke="black" points="145.948,-443.757 79.9789,-425.979 94.3693,-388.101 132.948,-398.498 145.948,-443.757"/>
<text text-anchor="middle" x="113" y="-410.3" font-family="Times,serif" font-size="14.00">E</text>
</g>
<!-- struct1 -->
<g id="node6" class="node"><title>struct1</title>
<polygon fill="none" stroke="black" points="164,-396 164,-432 296,-432 296,-396 164,-396"/>
<text text-anchor="middle" x="181.5" y="-410.3" font-family="Times,serif" font-size="14.00">left</text>
<polyline fill="none" stroke="black" points="199,-396 199,-432 "/>
<text text-anchor="middle" x="226.5" y="-410.3" font-family="Times,serif" font-size="14.00">middle</text>
<polyline fill="none" stroke="black" points="254,-396 254,-432 "/>
<text text-anchor="middle" x="275" y="-410.3" font-family="Times,serif" font-size="14.00">right</text>
</g>
<!-- struct2 -->
<g id="node7" class="node"><title>struct2</title>
<polygon fill="none" stroke="black" points="153.5,-266 153.5,-302 226.5,-302 226.5,-266 153.5,-266"/>
<text text-anchor="middle" x="171.5" y="-280.3" font-family="Times,serif" font-size="14.00">one</text>
<polyline fill="none" stroke="black" points="189.5,-266 189.5,-302 "/>
<text text-anchor="middle" x="208" y="-280.3" font-family="Times,serif" font-size="14.00">two</text>
</g>
<!-- struct1&#45;&gt;struct2 -->
<g id="edge5" class="edge"><title>struct1&#45;&gt;struct2</title>
<path fill="none" stroke="black" d="M224.605,-395.737C217.896,-374.266 206.363,-337.363 198.47,-312.104"/>
<polygon fill="black" stroke="black" points="201.76,-310.899 195.437,-302.398 195.079,-312.987 201.76,-310.899"/>
</g>
<!-- struct1&#45;&gt;struct2 -->
<g id="edge22" class="edge"><title>struct1:f1&#45;&gt;struct2:f0</title>
<path fill="none" stroke="black" d="M226,-395C226,-384.998 187.206,-335.305 174.78,-312.59"/>
<polygon fill="black" stroke="black" points="177.924,-311.02 171,-303 171.411,-313.587 177.924,-311.02"/>
</g>
<!-- struct3 -->
<g id="node8" class="node"><title>struct3</title>
<polygon fill="none" stroke="black" points="244.5,-249.5 244.5,-318.5 407.5,-318.5 407.5,-249.5 244.5,-249.5"/>
<text text-anchor="middle" x="268.5" y="-287.8" font-family="Times,serif" font-size="14.00">hello</text>
<text text-anchor="middle" x="268.5" y="-272.8" font-family="Times,serif" font-size="14.00">world</text>
<polyline fill="none" stroke="black" points="292.5,-249.5 292.5,-318.5 "/>
<text text-anchor="middle" x="327" y="-303.3" font-family="Times,serif" font-size="14.00">b</text>
<polyline fill="none" stroke="black" points="292.5,-295.5 361.5,-295.5 "/>
<text text-anchor="middle" x="304" y="-280.3" font-family="Times,serif" font-size="14.00">c</text>
<polyline fill="none" stroke="black" points="315.5,-272.5 315.5,-295.5 "/>
<text text-anchor="middle" x="327" y="-280.3" font-family="Times,serif" font-size="14.00">d</text>
<polyline fill="none" stroke="black" points="338.5,-272.5 338.5,-295.5 "/>
<text text-anchor="middle" x="350" y="-280.3" font-family="Times,serif" font-size="14.00">e</text>
<polyline fill="none" stroke="black" points="292.5,-272.5 361.5,-272.5 "/>
<text text-anchor="middle" x="327" y="-257.3" font-family="Times,serif" font-size="14.00">f</text>
<polyline fill="none" stroke="black" points="361.5,-249.5 361.5,-318.5 "/>
<text text-anchor="middle" x="373" y="-280.3" font-family="Times,serif" font-size="14.00">g</text>
<polyline fill="none" stroke="black" points="384.5,-249.5 384.5,-318.5 "/>
<text text-anchor="middle" x="396" y="-280.3" font-family="Times,serif" font-size="14.00">h</text>
</g>
<!-- struct1&#45;&gt;struct3 -->
<g id="edge6" class="edge"><title>struct1&#45;&gt;struct3</title>
<path fill="none" stroke="black" d="M242.947,-395.737C256.132,-378.157 277.076,-350.232 294.633,-326.823"/>
<polygon fill="black" stroke="black" points="297.483,-328.856 300.683,-318.756 291.883,-324.656 297.483,-328.856"/>
</g>
<!-- struct1&#45;&gt;struct3 -->
<g id="edge23" class="edge"><title>struct1:f2&#45;&gt;struct3:here</title>
<path fill="none" stroke="black" d="M275,-395C275,-392.552 301.886,-336.233 316.993,-304.781"/>
<polygon fill="black" stroke="black" points="320.256,-306.072 321.435,-295.543 313.947,-303.039 320.256,-306.072"/>
</g>
<!-- abc -->
<g id="node9" class="node"><title>abc</title>
<polygon fill="none" stroke="black" points="314,-376 314,-452 357,-452 357,-376 314,-376"/>
<text text-anchor="start" x="321.5" y="-417.8" font-family="Times,serif" font-size="14.00" fill="red">hello</text>
<text text-anchor="start" x="319.5" y="-402.8" font-family="Times,serif" font-size="14.00">world</text>
<polygon fill="none" stroke="black" points="357,-426 357,-452 408,-452 408,-426 357,-426"/>
<text text-anchor="start" x="379" y="-435.3" font-family="Times,serif" font-size="14.00">b</text>
<polygon fill="lightgrey" stroke="none" points="408,-376 408,-452 425,-452 425,-376 408,-376"/>
<polygon fill="none" stroke="black" points="408,-376 408,-452 425,-452 425,-376 408,-376"/>
<text text-anchor="start" x="413" y="-410.3" font-family="Times,serif" font-size="14.00">g</text>
<polygon fill="none" stroke="black" points="425,-376 425,-452 442,-452 442,-376 425,-376"/>
<text text-anchor="start" x="430" y="-410.3" font-family="Times,serif" font-size="14.00">h</text>
<polygon fill="none" stroke="black" points="357,-401 357,-426 374,-426 374,-401 357,-401"/>
<text text-anchor="start" x="362" y="-409.8" font-family="Times,serif" font-size="14.00">c</text>
<polygon fill="none" stroke="black" points="374,-401 374,-426 391,-426 391,-401 374,-401"/>
<text text-anchor="start" x="379" y="-409.8" font-family="Times,serif" font-size="14.00">d</text>
<polygon fill="none" stroke="black" points="391,-401 391,-426 408,-426 408,-401 391,-401"/>
<text text-anchor="start" x="396" y="-409.8" font-family="Times,serif" font-size="14.00">e</text>
<polygon fill="none" stroke="black" points="357,-376 357,-401 408,-401 408,-376 357,-376"/>
<text text-anchor="start" x="380" y="-384.8" font-family="Times,serif" font-size="14.00">f</text>
</g>
<!-- past -->
<g id="node10" class="node"><title>past</title>
<text text-anchor="middle" x="487" y="-410.3" font-family="Times,serif" font-size="14.00">past</text>
</g>
<!-- 1997 -->
<g id="node11" class="node"><title>1997</title>
<text text-anchor="middle" x="487" y="-280.3" font-family="Times,serif" font-size="14.00">1997</text>
</g>
<!-- past&#45;&gt;1997 -->
<g id="edge7" class="edge"><title>past&#45;&gt;1997</title>
<path fill="none" stroke="black" d="M487,-395.737C487,-374.361 487,-337.691 487,-312.442"/>
<polygon fill="black" stroke="black" points="490.5,-312.398 487,-302.398 483.5,-312.398 490.5,-312.398"/>
</g>
<!-- 2001 -->
<g id="node12" class="node"><title>2001</title>
<text text-anchor="middle" x="487" y="-188.3" font-family="Times,serif" font-size="14.00">2001</text>
</g>
<!-- 1997&#45;&gt;2001 -->
<g id="edge8" class="edge"><title>1997&#45;&gt;2001</title>
<path fill="none" stroke="black" d="M487,-265.647C487,-252.823 487,-235.108 487,-220.381"/>
<polygon fill="black" stroke="black" points="490.5,-220.3 487,-210.3 483.5,-220.3 490.5,-220.3"/>
</g>
<!-- 2005 -->
<g id="node13" class="node"><title>2005</title>
<text text-anchor="middle" x="487" y="-112.3" font-family="Times,serif" font-size="14.00">2005</text>
</g>
<!-- 2001&#45;&gt;2005 -->
<g id="edge9" class="edge"><title>2001&#45;&gt;2005</title>
<path fill="none" stroke="black" d="M487,-173.837C487,-165.058 487,-154.163 487,-144.267"/>
<polygon fill="black" stroke="black" points="490.5,-144.07 487,-134.07 483.5,-144.07 490.5,-144.07"/>
</g>
<!-- test1 -->
<g id="node14" class="node"><title>test1</title>
<text text-anchor="middle" x="560" y="-410.3" font-family="Times,serif" font-size="14.00">test1</text>
</g>
<!-- test3 -->
<g id="node16" class="node"><title>test3</title>
<text text-anchor="middle" x="631" y="-280.3" font-family="Times,serif" font-size="14.00">test3</text>
</g>
<!-- test1&#45;&gt;test3 -->
<g id="edge10" class="edge"><title>test1&#45;&gt;test3</title>
<path fill="none" stroke="black" d="M569.575,-395.737C581.591,-374.075 602.32,-336.706 616.338,-311.433"/>
<polygon fill="black" stroke="black" points="619.56,-312.84 621.35,-302.398 613.438,-309.445 619.56,-312.84"/>
</g>
<!-- test4 -->
<g id="node17" class="node"><title>test4</title>
<text text-anchor="middle" x="559" y="-280.3" font-family="Times,serif" font-size="14.00">test4</text>
</g>
<!-- test1&#45;&gt;test4 -->
<g id="edge11" class="edge"><title>test1&#45;&gt;test4</title>
<path fill="none" stroke="black" d="M559.865,-395.737C559.698,-374.361 559.412,-337.691 559.214,-312.442"/>
<polygon fill="black" stroke="black" points="562.714,-312.37 559.136,-302.398 555.714,-312.425 562.714,-312.37"/>
</g>
<!-- test2 -->
<g id="node15" class="node"><title>test2</title>
<text text-anchor="middle" x="632" y="-410.3" font-family="Times,serif" font-size="14.00">test2</text>
</g>
<!-- test2&#45;&gt;test3 -->
<g id="edge12" class="edge"><title>test2&#45;&gt;test3</title>
<path fill="none" stroke="black" d="M631.865,-395.737C631.698,-374.361 631.412,-337.691 631.214,-312.442"/>
<polygon fill="black" stroke="black" points="634.714,-312.37 631.136,-302.398 627.714,-312.425 634.714,-312.37"/>
</g>
<!-- test2&#45;&gt;test4 -->
<g id="edge13" class="edge"><title>test2&#45;&gt;test4</title>
<path fill="none" stroke="black" d="M622.155,-395.737C609.746,-373.98 588.3,-336.376 573.885,-311.1"/>
<polygon fill="black" stroke="black" points="576.917,-309.351 568.922,-302.398 570.836,-312.819 576.917,-309.351"/>
</g>
<!-- test5 -->
<g id="node18" class="node"><title>test5</title>
<text text-anchor="middle" x="619" y="-188.3" font-family="Times,serif" font-size="14.00">test5</text>
</g>
<!-- test3&#45;&gt;test5 -->
<g id="edge14" class="edge"><title>test3&#45;&gt;test5</title>
<path fill="none" stroke="black" d="M628.686,-265.647C626.976,-252.823 624.614,-235.108 622.651,-220.381"/>
<polygon fill="black" stroke="black" points="626.098,-219.749 621.307,-210.3 619.159,-220.675 626.098,-219.749"/>
</g>
<!-- test6 -->
<g id="node19" class="node"><title>test6</title>
<text text-anchor="middle" x="580" y="-112.3" font-family="Times,serif" font-size="14.00">test6</text>
</g>
<!-- test4&#45;&gt;test6 -->
<g id="edge15" class="edge"><title>test4&#45;&gt;test6</title>
<path fill="none" stroke="black" d="M561.168,-265.86C564.799,-237.157 572.141,-179.126 576.507,-144.609"/>
<polygon fill="black" stroke="black" points="580.029,-144.655 577.812,-134.295 573.085,-143.777 580.029,-144.655"/>
</g>
<!-- test5&#45;&gt;test6 -->
<g id="edge16" class="edge"><title>test5&#45;&gt;test6</title>
<path fill="none" stroke="black" d="M609.955,-173.837C605.131,-164.684 599.095,-153.232 593.708,-143.01"/>
<polygon fill="black" stroke="black" points="596.755,-141.285 588.996,-134.07 590.562,-144.548 596.755,-141.285"/>
</g>
<!-- AA -->
<g id="node20" class="node"><title>AA</title>
<polygon fill="none" stroke="black" points="677,-396 677,-432 731,-432 731,-396 677,-396"/>
<text text-anchor="middle" x="704" y="-410.3" font-family="Times,serif" font-size="14.00">AA</text>
</g>
<!-- BB -->
<g id="node21" class="node"><title>BB</title>
<polygon fill="none" stroke="black" points="677,-266 677,-302 731,-302 731,-266 677,-266"/>
<text text-anchor="middle" x="704" y="-280.3" font-family="Times,serif" font-size="14.00">BB</text>
</g>
<!-- AA&#45;&gt;BB -->
<g id="edge17" class="edge"><title>AA:n&#45;&gt;BB:n</title>
<path fill="none" stroke="black" d="M704,-433C704,-445.008 722.668,-440.647 731,-432 742.411,-420.159 733.339,-411.277 731,-395 725.459,-356.445 707.489,-347.11 704.441,-313.246"/>
<polygon fill="black" stroke="black" points="707.927,-312.84 704,-303 700.933,-313.141 707.927,-312.84"/>
</g>
<!-- CC -->
<g id="node22" class="node"><title>CC</title>
<polygon fill="none" stroke="black" points="749,-396 749,-432 833,-432 833,-396 749,-396"/>
<text text-anchor="middle" x="763" y="-410.3" font-family="Times,serif" font-size="14.00">f0</text>
<polyline fill="none" stroke="black" points="777,-396 777,-432 "/>
<text text-anchor="middle" x="791" y="-410.3" font-family="Times,serif" font-size="14.00">f1</text>
<polyline fill="none" stroke="black" points="805,-396 805,-432 "/>
<text text-anchor="middle" x="819" y="-410.3" font-family="Times,serif" font-size="14.00">f2</text>
</g>
<!-- DD -->
<g id="node23" class="node"><title>DD</title>
<polygon fill="none" stroke="black" points="770,-266 770,-302 854,-302 854,-266 770,-266"/>
<text text-anchor="middle" x="784" y="-280.3" font-family="Times,serif" font-size="14.00">f0</text>
<polyline fill="none" stroke="black" points="798,-266 798,-302 "/>
<text text-anchor="middle" x="812" y="-280.3" font-family="Times,serif" font-size="14.00">f1</text>
<polyline fill="none" stroke="black" points="826,-266 826,-302 "/>
<text text-anchor="middle" x="840" y="-280.3" font-family="Times,serif" font-size="14.00">f2</text>
</g>
<!-- CC&#45;&gt;DD -->
<g id="edge18" class="edge"><title>CC:f0:e&#45;&gt;DD:f0:w</title>
<path fill="none" stroke="black" d="M777,-414C777,-414 770,-303 770,-303 769.832,-300.098 768.662,-296.946 767.543,-294.059"/>
<polygon fill="black" stroke="black" points="771.03,-294.399 769,-284 764.102,-293.395 771.03,-294.399"/>
</g>
<!-- CC&#45;&gt;DD -->
<g id="edge19" class="edge"><title>CC:f1:e&#45;&gt;DD:f2:w</title>
<path fill="none" stroke="black" d="M805,-414C805,-414 805,-395.5 805,-395.5 809.321,-349.214 780.667,-293.509 815.67,-285.088"/>
<polygon fill="black" stroke="black" points="816.422,-288.528 826,-284 815.688,-281.567 816.422,-288.528"/>
</g>
<!-- node0 -->
<g id="node24" class="node"><title>node0</title>
<polygon fill="none" stroke="black" points="884,-396 884,-432 952,-432 952,-396 884,-396"/>
<text text-anchor="middle" x="894" y="-410.3" font-family="Times,serif" font-size="14.00"> </text>
<polyline fill="none" stroke="black" points="904,-396 904,-432 "/>
<text text-anchor="middle" x="918" y="-410.3" font-family="Times,serif" font-size="14.00">f1</text>
<polyline fill="none" stroke="black" points="932,-396 932,-432 "/>
<text text-anchor="middle" x="942" y="-410.3" font-family="Times,serif" font-size="14.00"> </text>
</g>
<!-- node1 -->
<g id="node25" class="node"><title>node1</title>
<polygon fill="none" stroke="black" points="872,-266 872,-302 940,-302 940,-266 872,-266"/>
<text text-anchor="middle" x="882" y="-280.3" font-family="Times,serif" font-size="14.00"> </text>
<polyline fill="none" stroke="black" points="892,-266 892,-302 "/>
<text text-anchor="middle" x="906" y="-280.3" font-family="Times,serif" font-size="14.00">f1</text>
<polyline fill="none" stroke="black" points="920,-266 920,-302 "/>
<text text-anchor="middle" x="930" y="-280.3" font-family="Times,serif" font-size="14.00"> </text>
</g>
<!-- node0&#45;&gt;node1 -->
<g id="edge20" class="edge"><title>node0:f0&#45;&gt;node1:f2</title>
<path fill="none" stroke="black" d="M894,-395C894,-354.694 924.336,-347.862 929.313,-313.047"/>
<polygon fill="black" stroke="black" points="932.81,-313.215 930,-303 925.826,-312.738 932.81,-313.215"/>
</g>
<!-- node0&#45;&gt;node1 -->
<g id="edge21" class="edge"><title>node0:f2&#45;&gt;node1:f0</title>
<path fill="none" stroke="black" d="M942,-395C942,-370.783 915.404,-378.169 902,-358 889.74,-339.553 883.857,-331.501 882.381,-313.456"/>
<polygon fill="black" stroke="black" points="885.862,-312.866 882,-303 878.866,-313.121 885.862,-312.866"/>
</g>
<!-- hashtable -->
<g id="node26" class="node"><title>hashtable</title>
<polygon fill="none" stroke="black" points="1060,-396 1060,-432 1140,-432 1140,-396 1060,-396"/>
<text text-anchor="middle" x="1070" y="-410.3" font-family="Times,serif" font-size="14.00"> </text>
<polyline fill="none" stroke="black" points="1080,-396 1080,-432 "/>
<text text-anchor="middle" x="1090" y="-410.3" font-family="Times,serif" font-size="14.00"> </text>
<polyline fill="none" stroke="black" points="1100,-396 1100,-432 "/>
<text text-anchor="middle" x="1110" y="-410.3" font-family="Times,serif" font-size="14.00"> </text>
<polyline fill="none" stroke="black" points="1120,-396 1120,-432 "/>
<text text-anchor="middle" x="1130" y="-410.3" font-family="Times,serif" font-size="14.00"> </text>
</g>
<!-- hashitem1 -->
<g id="node27" class="node"><title>hashitem1</title>
<polygon fill="none" stroke="black" points="958.5,-266 958.5,-302 1073.5,-302 1073.5,-266 958.5,-266"/>
<text text-anchor="middle" x="979" y="-280.3" font-family="Times,serif" font-size="14.00">prev</text>
<polyline fill="none" stroke="black" points="999.5,-266 999.5,-302 "/>
<text text-anchor="middle" x="1016.5" y="-280.3" font-family="Times,serif" font-size="14.00">cur</text>
<polyline fill="none" stroke="black" points="1033.5,-266 1033.5,-302 "/>
<text text-anchor="middle" x="1053.5" y="-280.3" font-family="Times,serif" font-size="14.00">next</text>
</g>
<!-- hashtable&#45;&gt;hashitem1 -->
<g id="edge24" class="edge"><title>hashtable:f0&#45;&gt;hashitem1</title>
<path fill="none" stroke="black" d="M1070,-395C1070,-363.4 1051.82,-331.438 1036.56,-310.173"/>
<polygon fill="black" stroke="black" points="1039.26,-307.939 1030.47,-302.021 1033.65,-312.127 1039.26,-307.939"/>
</g>
<!-- hashitem2 -->
<g id="node28" class="node"><title>hashitem2</title>
<polygon fill="none" stroke="black" points="1091.5,-266 1091.5,-302 1206.5,-302 1206.5,-266 1091.5,-266"/>
<text text-anchor="middle" x="1112" y="-280.3" font-family="Times,serif" font-size="14.00">prev</text>
<polyline fill="none" stroke="black" points="1132.5,-266 1132.5,-302 "/>
<text text-anchor="middle" x="1149.5" y="-280.3" font-family="Times,serif" font-size="14.00">cur</text>
<polyline fill="none" stroke="black" points="1166.5,-266 1166.5,-302 "/>
<text text-anchor="middle" x="1186.5" y="-280.3" font-family="Times,serif" font-size="14.00">next</text>
</g>
<!-- hashtable&#45;&gt;hashitem2 -->
<g id="edge25" class="edge"><title>hashtable:f1&#45;&gt;hashitem2</title>
<path fill="none" stroke="black" d="M1090,-395C1090,-362.859 1109.8,-331.039 1126.46,-309.956"/>
<polygon fill="black" stroke="black" points="1129.23,-312.1 1132.88,-302.152 1123.82,-307.655 1129.23,-312.1"/>
</g>
<!-- hashitem3 -->
<g id="node29" class="node"><title>hashitem3</title>
<polygon fill="none" stroke="black" points="995.5,-174 995.5,-210 1110.5,-210 1110.5,-174 995.5,-174"/>
<text text-anchor="middle" x="1016" y="-188.3" font-family="Times,serif" font-size="14.00">prev</text>
<polyline fill="none" stroke="black" points="1036.5,-174 1036.5,-210 "/>
<text text-anchor="middle" x="1053.5" y="-188.3" font-family="Times,serif" font-size="14.00">cur</text>
<polyline fill="none" stroke="black" points="1070.5,-174 1070.5,-210 "/>
<text text-anchor="middle" x="1090.5" y="-188.3" font-family="Times,serif" font-size="14.00">next</text>
</g>
<!-- hashitem1&#45;&gt;hashitem3 -->
<g id="edge26" class="edge"><title>hashitem1:next&#45;&gt;hashitem3:n</title>
<path fill="none" stroke="black" d="M1054,-265C1054,-244.747 1053.29,-237.316 1053.07,-221.07"/>
<polygon fill="black" stroke="black" points="1056.57,-220.977 1053,-211 1049.57,-221.023 1056.57,-220.977"/>
</g>
<!-- hashitem4 -->
<g id="node30" class="node"><title>hashitem4</title>
<polygon fill="none" stroke="black" points="1128.5,-174 1128.5,-210 1243.5,-210 1243.5,-174 1128.5,-174"/>
<text text-anchor="middle" x="1149" y="-188.3" font-family="Times,serif" font-size="14.00">prev</text>
<polyline fill="none" stroke="black" points="1169.5,-174 1169.5,-210 "/>
<text text-anchor="middle" x="1186.5" y="-188.3" font-family="Times,serif" font-size="14.00">cur</text>
<polyline fill="none" stroke="black" points="1203.5,-174 1203.5,-210 "/>
<text text-anchor="middle" x="1223.5" y="-188.3" font-family="Times,serif" font-size="14.00">next</text>
</g>
<!-- hashitem2&#45;&gt;hashitem4 -->
<g id="edge27" class="edge"><title>hashitem2:next&#45;&gt;hashitem4:n</title>
<path fill="none" stroke="black" d="M1187,-265C1187,-244.747 1186.29,-237.316 1186.07,-221.07"/>
<polygon fill="black" stroke="black" points="1189.57,-220.977 1186,-211 1182.57,-221.023 1189.57,-220.977"/>
</g>
<!-- hashitem3&#45;&gt;hashitem1 -->
<g id="edge28" class="edge"><title>hashitem3:prev&#45;&gt;hashitem1:n</title>
<path fill="none" stroke="black" d="M1016,-211C1016,-216.94 1114.44,-259.827 1073,-302 1066.34,-308.777 1037.61,-313.077 1023.66,-309.459"/>
<polygon fill="black" stroke="black" points="1025.9,-306.772 1016,-303 1021.39,-312.123 1025.9,-306.772"/>
</g>
<!-- hashitem4&#45;&gt;hashitem2 -->
<g id="edge29" class="edge"><title>hashitem4:prev&#45;&gt;hashitem2:n</title>
<path fill="none" stroke="black" d="M1149,-211C1149,-216.94 1247.44,-259.827 1206,-302 1199.34,-308.777 1170.61,-313.077 1156.66,-309.459"/>
<polygon fill="black" stroke="black" points="1158.9,-306.772 1149,-303 1154.39,-312.123 1158.9,-306.772"/>
</g>
<!-- hashitem5 -->
<g id="node31" class="node"><title>hashitem5</title>
<polygon fill="none" stroke="black" points="1179.5,-396 1179.5,-432 1294.5,-432 1294.5,-396 1179.5,-396"/>
<text text-anchor="middle" x="1200" y="-410.3" font-family="Times,serif" font-size="14.00">prev</text>
<polyline fill="none" stroke="black" points="1220.5,-396 1220.5,-432 "/>
<text text-anchor="middle" x="1237.5" y="-410.3" font-family="Times,serif" font-size="14.00">cur</text>
<polyline fill="none" stroke="black" points="1254.5,-396 1254.5,-432 "/>
<text text-anchor="middle" x="1274.5" y="-410.3" font-family="Times,serif" font-size="14.00">next</text>
</g>
<!-- PA -->
<g id="node32" class="node"><title>PA</title>
<polygon fill="white" stroke="white" points="1312,-266 1312,-302 1366,-302 1366,-266 1312,-266"/>
<text text-anchor="middle" x="1339" y="-280.3" font-family="Times,serif" font-size="14.00">PA</text>
</g>
<!-- PB -->
<g id="node33" class="node"><title>PB</title>
<polygon fill="white" stroke="white" points="1312,-174 1312,-210 1366,-210 1366,-174 1312,-174"/>
<text text-anchor="middle" x="1339" y="-188.3" font-family="Times,serif" font-size="14.00">PB</text>
</g>
<!-- PA&#45;&gt;PB -->
<g id="edge30" class="edge"><title>PA&#45;&gt;PB</title>
<path fill="none" stroke="black" d="M1339,-265.647C1339,-252.823 1339,-235.108 1339,-220.381"/>
<polygon fill="black" stroke="black" points="1342.5,-220.3 1339,-210.3 1335.5,-220.3 1342.5,-220.3"/>
</g>
<!-- PC -->
<g id="node34" class="node"><title>PC</title>
<polygon fill="white" stroke="white" points="1312,-98 1312,-134 1366,-134 1366,-98 1312,-98"/>
<text text-anchor="middle" x="1339" y="-112.3" font-family="Times,serif" font-size="14.00">PC</text>
</g>
<!-- PB&#45;&gt;PC -->
<g id="edge31" class="edge"><title>PB&#45;&gt;PC</title>
<path fill="none" stroke="black" d="M1339,-173.837C1339,-165.058 1339,-154.163 1339,-144.267"/>
<polygon fill="black" stroke="black" points="1342.5,-144.07 1339,-134.07 1335.5,-144.07 1342.5,-144.07"/>
</g>
<!-- end -->
<g id="node39" class="node"><title>end</title>
<polygon fill="none" stroke="black" points="1402,-59 1366,-59 1366,-23 1402,-23 1402,-59"/>
<polyline fill="none" stroke="black" points="1378,-59 1366,-47 "/>
<polyline fill="none" stroke="black" points="1366,-35 1378,-23 "/>
<polyline fill="none" stroke="black" points="1390,-23 1402,-35 "/>
<polyline fill="none" stroke="black" points="1402,-47 1390,-59 "/>
<text text-anchor="middle" x="1384" y="-37.3" font-family="Times,serif" font-size="14.00">end</text>
</g>
<!-- PC&#45;&gt;end -->
<g id="edge36" class="edge"><title>PC&#45;&gt;end</title>
<path fill="none" stroke="black" d="M1349.66,-97.7C1355.16,-88.7906 1361.96,-77.7476 1368.07,-67.8497"/>
<polygon fill="black" stroke="black" points="1371.14,-69.525 1373.41,-59.1758 1365.19,-65.8518 1371.14,-69.525"/>
</g>
<!-- PA2 -->
<g id="node35" class="node"><title>PA2</title>
<polygon fill="blue" stroke="blue" points="1390,-266 1390,-302 1444,-302 1444,-266 1390,-266"/>
<text text-anchor="middle" x="1417" y="-280.3" font-family="Times,serif" font-size="14.00">PA2</text>
</g>
<!-- PB2 -->
<g id="node36" class="node"><title>PB2</title>
<polygon fill="blue" stroke="blue" points="1390,-174 1390,-210 1444,-210 1444,-174 1390,-174"/>
<text text-anchor="middle" x="1417" y="-188.3" font-family="Times,serif" font-size="14.00">PB2</text>
</g>
<!-- PA2&#45;&gt;PB2 -->
<g id="edge32" class="edge"><title>PA2&#45;&gt;PB2</title>
<path fill="none" stroke="black" d="M1417,-265.647C1417,-252.823 1417,-235.108 1417,-220.381"/>
<polygon fill="black" stroke="black" points="1420.5,-220.3 1417,-210.3 1413.5,-220.3 1420.5,-220.3"/>
</g>
<!-- PC2 -->
<g id="node37" class="node"><title>PC2</title>
<polygon fill="blue" stroke="blue" points="1390,-98 1390,-134 1444,-134 1444,-98 1390,-98"/>
<text text-anchor="middle" x="1417" y="-112.3" font-family="Times,serif" font-size="14.00">PC2</text>
</g>
<!-- PB2&#45;&gt;PC2 -->
<g id="edge33" class="edge"><title>PB2&#45;&gt;PC2</title>
<path fill="none" stroke="black" d="M1417,-173.837C1417,-165.058 1417,-154.163 1417,-144.267"/>
<polygon fill="black" stroke="black" points="1420.5,-144.07 1417,-134.07 1413.5,-144.07 1420.5,-144.07"/>
</g>
<!-- PC2&#45;&gt;end -->
<g id="edge37" class="edge"><title>PC2&#45;&gt;end</title>
<path fill="none" stroke="black" d="M1409.18,-97.7C1405.23,-88.9724 1400.36,-78.1974 1395.96,-68.4571"/>
<polygon fill="black" stroke="black" points="1399.07,-66.8463 1391.76,-59.1758 1392.69,-69.7297 1399.07,-66.8463"/>
</g>
<!-- start -->
<g id="node38" class="node"><title>start</title>
<polygon fill="none" stroke="black" points="1360,-432 1323.85,-414 1360,-396 1396.15,-414 1360,-432"/>
<polyline fill="none" stroke="black" points="1334.59,-419.348 1334.59,-408.652 "/>
<polyline fill="none" stroke="black" points="1349.26,-401.348 1370.74,-401.348 "/>
<polyline fill="none" stroke="black" points="1385.41,-408.652 1385.41,-419.348 "/>
<polyline fill="none" stroke="black" points="1370.74,-426.652 1349.26,-426.652 "/>
<text text-anchor="middle" x="1360" y="-410.3" font-family="Times,serif" font-size="14.00">start</text>
</g>
<!-- start&#45;&gt;PA -->
<g id="edge34" class="edge"><title>start&#45;&gt;PA</title>
<path fill="none" stroke="black" d="M1357.38,-397.048C1353.9,-375.843 1347.7,-338.055 1343.48,-312.279"/>
<polygon fill="black" stroke="black" points="1346.92,-311.685 1341.85,-302.383 1340.02,-312.818 1346.92,-311.685"/>
</g>
<!-- start&#45;&gt;PA2 -->
<g id="edge35" class="edge"><title>start&#45;&gt;PA2</title>
<path fill="none" stroke="black" d="M1366.32,-398.813C1375.67,-377.804 1393.37,-338.053 1405.18,-311.539"/>
<polygon fill="black" stroke="black" points="1408.52,-312.652 1409.39,-302.093 1402.12,-309.804 1408.52,-312.652"/>
</g>
</g>
</svg>
