<?xml version="1.0" encoding="UTF-8" standalone="no"?>
<!DOCTYPE svg PUBLIC "-//W3C//DTD SVG 1.1//EN"
 "http://www.w3.org/Graphics/SVG/1.1/DTD/svg11.dtd">
<!-- Generated by graphviz version 2.36.0 (20140111.2315)
 -->
<!-- Title: power Pages: 1 -->
<svg width="537pt" height="342pt"
 viewBox="0.00 0.00 537.00 342.00" xmlns="http://www.w3.org/2000/svg" xmlns:xlink="http://www.w3.org/1999/xlink">
<g id="graph0" class="graph" transform="scale(1 1) rotate(0) translate(4 338)">
<title>power</title>
<polygon fill="white" stroke="none" points="-4,4 -4,-338 533,-338 533,4 -4,4"/>
<text text-anchor="middle" x="264.5" y="-7.8" font-family="Times,serif" font-size="14.00">power</text>
<g id="clust5" class="cluster"><title>cluster1</title>
<polygon fill="none" stroke="black" points="370,-163 370,-326 440,-326 440,-163 370,-163"/>
<text text-anchor="middle" x="405" y="-310.8" font-family="Times,serif" font-size="14.00">power</text>
</g>
<!-- pvpsvr -->
<g id="node1" class="node"><title>pvpsvr</title>
<polygon fill="none" stroke="black" points="163,-295 109,-295 109,-259 163,-259 163,-295"/>
<text text-anchor="middle" x="136" y="-273.3" font-family="Times,serif" font-size="14.00">pvpsvr</text>
</g>
<!-- gatewaysvr -->
<g id="node4" class="node"><title>gatewaysvr</title>
<polygon fill="none" stroke="black" points="255,-207 177,-207 177,-171 255,-171 255,-207"/>
<text text-anchor="middle" x="216" y="-185.3" font-family="Times,serif" font-size="14.00">gatewaysvr</text>
</g>
<!-- pvpsvr&#45;&gt;gatewaysvr -->
<g id="edge1" class="edge"><title>pvpsvr&#45;&gt;gatewaysvr</title>
<path fill="none" stroke="black" d="M159.138,-251.127C169.815,-239.649 182.455,-226.061 193.103,-214.614"/>
<polygon fill="black" stroke="black" points="156.438,-248.891 152.189,-258.597 161.563,-253.659 156.438,-248.891"/>
<polygon fill="black" stroke="black" points="195.859,-216.79 200.108,-207.084 190.734,-212.022 195.859,-216.79"/>
</g>
<!-- clustersvr -->
<g id="node2" class="node"><title>clustersvr</title>
<polygon fill="none" stroke="black" points="250.25,-295 181.75,-295 181.75,-259 250.25,-259 250.25,-295"/>
<text text-anchor="middle" x="216" y="-273.3" font-family="Times,serif" font-size="14.00">clustersvr</text>
</g>
<!-- clustersvr&#45;&gt;gatewaysvr -->
<g id="edge2" class="edge"><title>clustersvr&#45;&gt;gatewaysvr</title>
<path fill="none" stroke="black" d="M216,-248.342C216,-238.378 216,-227.149 216,-217.223"/>
<polygon fill="black" stroke="black" points="212.5,-248.597 216,-258.597 219.5,-248.597 212.5,-248.597"/>
<polygon fill="black" stroke="black" points="219.5,-217.084 216,-207.084 212.5,-217.084 219.5,-217.084"/>
</g>
<!-- crossgamesvr -->
<g id="node3" class="node"><title>crossgamesvr</title>
<polygon fill="none" stroke="black" points="359.25,-295 268.75,-295 268.75,-259 359.25,-259 359.25,-295"/>
<text text-anchor="middle" x="314" y="-273.3" font-family="Times,serif" font-size="14.00">crossgamesvr</text>
</g>
<!-- crossgamesvr&#45;&gt;gatewaysvr -->
<g id="edge3" class="edge"><title>crossgamesvr&#45;&gt;gatewaysvr</title>
<path fill="none" stroke="black" d="M286.547,-251.909C272.958,-239.983 256.608,-225.635 243.071,-213.756"/>
<polygon fill="black" stroke="black" points="284.343,-254.631 294.168,-258.597 288.961,-249.37 284.343,-254.631"/>
<polygon fill="black" stroke="black" points="245.293,-211.049 235.468,-207.084 240.676,-216.311 245.293,-211.049"/>
</g>
<!-- dispsvr1 -->
<g id="node5" class="node"><title>dispsvr1</title>
<polygon fill="blue" stroke="blue" points="194.5,-133 133.5,-133 133.5,-97 194.5,-97 194.5,-133"/>
<text text-anchor="middle" x="164" y="-111.3" font-family="Times,serif" font-size="14.00">dispsvr1</text>
</g>
<!-- gatewaysvr&#45;&gt;dispsvr1 -->
<g id="edge4" class="edge"><title>gatewaysvr&#45;&gt;dispsvr1</title>
<path fill="none" stroke="black" d="M197.794,-162.792C192.87,-155.974 187.535,-148.588 182.591,-141.741"/>
<polygon fill="black" stroke="black" points="194.984,-164.879 203.677,-170.937 200.659,-160.781 194.984,-164.879"/>
<polygon fill="black" stroke="black" points="185.288,-139.498 176.596,-133.441 179.614,-143.597 185.288,-139.498"/>
</g>
<!-- dispsvr2 -->
<g id="node6" class="node"><title>dispsvr2</title>
<polygon fill="blue" stroke="blue" points="382.5,-133 321.5,-133 321.5,-97 382.5,-97 382.5,-133"/>
<text text-anchor="middle" x="352" y="-111.3" font-family="Times,serif" font-size="14.00">dispsvr2</text>
</g>
<!-- gatewaysvr&#45;&gt;dispsvr2 -->
<g id="edge5" class="edge"><title>gatewaysvr&#45;&gt;dispsvr2</title>
<path fill="none" stroke="black" d="M257.118,-166.232C274.563,-156.996 294.82,-146.272 312.127,-137.109"/>
<polygon fill="black" stroke="black" points="255.43,-163.165 248.23,-170.937 258.706,-169.351 255.43,-163.165"/>
<polygon fill="black" stroke="black" points="314.202,-139.971 321.402,-132.199 310.927,-133.785 314.202,-139.971"/>
</g>
<!-- gamesvr1 -->
<g id="node7" class="node"><title>gamesvr1</title>
<polygon fill="none" stroke="black" points="70,-59 0,-59 0,-23 70,-23 70,-59"/>
<text text-anchor="middle" x="35" y="-37.3" font-family="Times,serif" font-size="14.00">gamesvr1</text>
</g>
<!-- dispsvr1&#45;&gt;gamesvr1 -->
<g id="edge6" class="edge"><title>dispsvr1&#45;&gt;gamesvr1</title>
<path fill="none" stroke="black" d="M124.475,-91.9398C108.709,-83.1396 90.5868,-73.0252 74.7933,-64.2102"/>
<polygon fill="black" stroke="black" points="122.991,-95.1195 133.429,-96.937 126.403,-89.0071 122.991,-95.1195"/>
<polygon fill="black" stroke="black" points="76.2366,-61.0075 65.7988,-59.19 72.825,-67.1199 76.2366,-61.0075"/>
</g>
<!-- guildsvr1 -->
<g id="node8" class="node"><title>guildsvr1</title>
<polygon fill="none" stroke="black" points="156,-59 88,-59 88,-23 156,-23 156,-59"/>
<text text-anchor="middle" x="122" y="-37.3" font-family="Times,serif" font-size="14.00">guildsvr1</text>
</g>
<!-- dispsvr1&#45;&gt;guildsvr1 -->
<g id="edge7" class="edge"><title>dispsvr1&#45;&gt;guildsvr1</title>
<path fill="none" stroke="black" d="M148.952,-88.2033C145.211,-81.7903 141.195,-74.9064 137.436,-68.462"/>
<polygon fill="black" stroke="black" points="145.985,-90.0628 154.047,-96.937 152.031,-86.5356 145.985,-90.0628"/>
<polygon fill="black" stroke="black" points="140.236,-66.3149 132.174,-59.4407 134.189,-69.842 140.236,-66.3149"/>
</g>
<!-- redisproxy1 -->
<g id="node9" class="node"><title>redisproxy1</title>
<polygon fill="none" stroke="black" points="255.25,-59 174.75,-59 174.75,-23 255.25,-23 255.25,-59"/>
<text text-anchor="middle" x="215" y="-37.3" font-family="Times,serif" font-size="14.00">redisproxy1</text>
</g>
<!-- dispsvr1&#45;&gt;redisproxy1 -->
<g id="edge8" class="edge"><title>dispsvr1&#45;&gt;redisproxy1</title>
<path fill="none" stroke="black" d="M182.064,-88.4981C186.856,-81.7332 192.031,-74.4262 196.829,-67.6532"/>
<polygon fill="black" stroke="black" points="179.01,-86.7537 176.086,-96.937 184.723,-90.7998 179.01,-86.7537"/>
<polygon fill="black" stroke="black" points="199.722,-69.624 202.646,-59.4407 194.01,-65.5779 199.722,-69.624"/>
</g>
<!-- gamesvr2 -->
<g id="node10" class="node"><title>gamesvr2</title>
<polygon fill="none" stroke="black" points="344,-59 274,-59 274,-23 344,-23 344,-59"/>
<text text-anchor="middle" x="309" y="-37.3" font-family="Times,serif" font-size="14.00">gamesvr2</text>
</g>
<!-- dispsvr2&#45;&gt;gamesvr2 -->
<g id="edge9" class="edge"><title>dispsvr2&#45;&gt;gamesvr2</title>
<path fill="none" stroke="black" d="M336.594,-88.2033C332.764,-81.7903 328.652,-74.9064 324.804,-68.462"/>
<polygon fill="black" stroke="black" points="333.677,-90.1462 341.81,-96.937 339.687,-86.5569 333.677,-90.1462"/>
<polygon fill="black" stroke="black" points="327.548,-66.2315 319.416,-59.4407 321.539,-69.8207 327.548,-66.2315"/>
</g>
<!-- guildsvr2 -->
<g id="node11" class="node"><title>guildsvr2</title>
<polygon fill="none" stroke="black" points="430,-59 362,-59 362,-23 430,-23 430,-59"/>
<text text-anchor="middle" x="396" y="-37.3" font-family="Times,serif" font-size="14.00">guildsvr2</text>
</g>
<!-- dispsvr2&#45;&gt;guildsvr2 -->
<g id="edge10" class="edge"><title>dispsvr2&#45;&gt;guildsvr2</title>
<path fill="none" stroke="black" d="M367.765,-88.2033C371.775,-81.6411 376.086,-74.586 380.103,-68.0131"/>
<polygon fill="black" stroke="black" points="364.655,-86.5791 362.427,-96.937 370.628,-90.2293 364.655,-86.5791"/>
<polygon fill="black" stroke="black" points="383.114,-69.7986 385.342,-59.4407 377.141,-66.1484 383.114,-69.7986"/>
</g>
<!-- redisproxy2 -->
<g id="node12" class="node"><title>redisproxy2</title>
<polygon fill="none" stroke="black" points="529.25,-59 448.75,-59 448.75,-23 529.25,-23 529.25,-59"/>
<text text-anchor="middle" x="489" y="-37.3" font-family="Times,serif" font-size="14.00">redisproxy2</text>
</g>
<!-- dispsvr2&#45;&gt;redisproxy2 -->
<g id="edge11" class="edge"><title>dispsvr2&#45;&gt;redisproxy2</title>
<path fill="none" stroke="black" d="M391.847,-93.0585C409.325,-83.8729 429.839,-73.0917 447.502,-63.8091"/>
<polygon fill="black" stroke="black" points="389.969,-90.0914 382.745,-97.8418 393.226,-96.2878 389.969,-90.0914"/>
<polygon fill="black" stroke="black" points="449.224,-66.8583 456.447,-59.1079 445.967,-60.6619 449.224,-66.8583"/>
</g>
<!-- start -->
<g id="node13" class="node"><title>start</title>
<text text-anchor="middle" x="405" y="-273.3" font-family="Times,serif" font-size="14.00">start</text>
</g>
<!-- end -->
<g id="node14" class="node"><title>end</title>
<text text-anchor="middle" x="405" y="-185.3" font-family="Times,serif" font-size="14.00">end</text>
</g>
<!-- start&#45;&gt;end -->
<g id="edge12" class="edge"><title>start&#45;&gt;end</title>
<path fill="none" stroke="black" d="M405,-248.342C405,-238.378 405,-227.149 405,-217.223"/>
<polygon fill="black" stroke="black" points="401.5,-248.597 405,-258.597 408.5,-248.597 401.5,-248.597"/>
<polygon fill="black" stroke="black" points="408.5,-217.084 405,-207.084 401.5,-217.084 408.5,-217.084"/>
<text text-anchor="middle" x="416.5" y="-229.3" font-family="Times,serif" font-size="14.00">tbus</text>
</g>
</g>
</svg>
